<svg xmlns="http://www.w3.org/2000/svg" viewBox="0 0 512 512" width="512" height="512" role="img" aria-label="ViewTitle">
  <title>ViewTitle</title>
  <defs>
    <clipPath id="vt-card">
      <rect width="512" height="512" rx="114.94" ry="114.94"/>
    </clipPath>
  </defs>
  <g clip-path="url(#vt-card)">
    <rect width="512" height="512" fill="#0071e3"/>
    <rect y="256.00" width="512" height="256.00" fill="#005fc8"/>
    <g fill="none" stroke="#ffffff" stroke-width="58.88" stroke-linecap="round" stroke-linejoin="round">
    <path d="M 94.74 199.48 L 153.72 133.12 L 153.72 378.88"/>
    <path d="M 275.85 244.28 L 274.62 238.75 L 273.69 233.12 L 273.08 227.43 L 272.78 221.71 L 272.80 215.97 L 273.13 210.25 L 273.77 204.57 L 274.73 198.95 L 275.99 193.42 L 277.55 188.01 L 279.40 182.74 L 281.54 177.62 L 283.96 172.69 L 286.64 167.97 L 289.57 163.48 L 292.74 159.23 L 296.14 155.25 L 299.75 151.55 L 303.55 148.16 L 307.53 145.08 L 311.67 142.33 L 315.96 139.92 L 320.36 137.86 L 324.87 136.16 L 329.46 134.84 L 334.12 133.88 L 338.81 133.31 L 343.53 133.12 L 348.25 133.31 L 352.94 133.88 L 357.60 134.84 L 362.19 136.16 L 366.70 137.86 L 371.11 139.92 L 375.39 142.33 L 379.53 145.08 L 383.51 148.16 L 387.32 151.55 L 390.92 155.25 L 394.32 159.23 L 397.50 163.48 L 400.43 167.97 L 403.11 172.69 L 405.52 177.62 L 407.66 182.74 L 409.51 188.01 L 411.07 193.42 L 412.33 198.95 L 413.29 204.57 L 413.93 210.25 L 414.26 215.97 L 414.28 221.71 L 413.98 227.43 L 413.37 233.12 L 412.45 238.75 L 411.22 244.28 L 275.70 378.88 L 417.26 378.88"/>
    </g>
    <rect y="251.90" width="512" height="8.19" fill="#004593"/>
  </g>
</svg>
