<svg xmlns="http://www.w3.org/2000/svg" viewBox="0 0 512 512" width="512" height="512" role="img" aria-label="ViewTitle">
  <title>ViewTitle</title>
  <defs>
    <clipPath id="vt-card">
      <rect width="512" height="512" rx="114.94" ry="114.94"/>
    </clipPath>
  </defs>
  <g clip-path="url(#vt-card)">
    <rect width="512" height="512" fill="#0071e3"/>
    <rect y="256.00" width="512" height="256.00" fill="#005fc8"/>
    <g fill="none" stroke="#ffffff" stroke-width="58.88" stroke-linecap="round" stroke-linejoin="round">
    <path d="M 93.49 283.22 L 96.91 274.68 L 101.31 266.71 L 106.63 259.44 L 112.76 253.00 L 119.60 247.48 L 127.04 243.00 L 134.95 239.62 L 143.19 237.41 L 151.63 236.39 L 160.11 236.59 L 168.50 238.01 L 176.65 240.62 L 184.42 244.38 L 191.67 249.21 L 198.29 255.05 L 204.16 261.78 L 209.18 269.30 L 213.26 277.47 L 216.34 286.16 L 218.36 295.22 L 219.28 304.48 L 219.09 313.80 L 217.80 323.02 L 215.43 331.97 L 212.01 340.50 L 207.61 348.47 L 202.30 355.74 L 196.16 362.19 L 189.32 367.70 L 181.88 372.19 L 173.97 375.57 L 165.73 377.78 L 157.29 378.80 L 148.81 378.59 L 140.42 377.17 L 132.27 374.57 L 124.50 370.81 L 117.25 365.97 L 110.63 360.14 L 104.76 353.41 L 99.74 345.89 L 95.66 337.71 L 92.58 329.02 L 90.57 319.97 L 89.64 310.70 L 89.83 301.38 L 91.12 292.17 L 93.49 283.22 L 89.58 275.64 L 89.58 182.26 L 89.58 182.26 L 89.84 177.62 L 90.63 173.02 L 91.94 168.50 L 93.75 164.11 L 96.05 159.88 L 98.82 155.85 L 102.03 152.05 L 105.66 148.53 L 109.67 145.30 L 114.03 142.41 L 118.70 139.87 L 123.63 137.71 L 128.79 135.95 L 134.13 134.60 L 139.59 133.68 L 145.13 133.19 L 150.71 133.14 L 156.26 133.52 L 161.75 134.35 L 167.11 135.60 L 172.32 137.27 L 177.31 139.34 L 182.04 141.79 L 186.48 144.60"/>
    <path d="M 283.81 138.02 L 422.42 138.02 L 332.47 378.86"/>
    </g>
    <rect y="251.90" width="512" height="8.19" fill="#004593"/>
  </g>
</svg>
